# xmcd
#
# Track frame offsets: 
#        150
#        22029
#        38479
#        60795
#        80167
#        101209
#        127818
#        143152
#        154113
#        168391
#        178441
#        200628
#        228613
#
# Disc length: 3288 seconds
#
# Revision: 1
# Processed by: cddbd v1.5.2PL0 Copyright (c) Steve Scherf et al.
# Submitted via: ExactAudioCopy v0.99pb4
#
DISCID=b00cd60d
DTITLE=Hyacinth House - Black Crows' Country
DYEAR=2007
DGENRE=Alternative
TTITLE0=Rosewood Country Club
TTITLE1=Black Crows' Country
TTITLE2=Road To Flowers
TTITLE3=Lucky Stranger
TTITLE4=European Rails
TTITLE5=Whiskey Nights
TTITLE6=Swedish Signs On Monkey Island
TTITLE7=Numb The Heart
TTITLE8=Mundus Vult Decipi, Ergo Decipiatur
TTITLE9=Pete La Las
TTITLE10=Two White Men In A Black Car and A Ticket Out Of Here (Take 86)
TTITLE11=Beyond The End
TTITLE12=Unwieldy Farmers' Blues
EXTD=
EXTT0=
EXTT1=
EXTT2=
EXTT3=
EXTT4=
EXTT5=
EXTT6=
EXTT7=
EXTT8=
EXTT9=
EXTT10=
EXTT11=
EXTT12=
PLAYORDER=
